<?xml version="1.0" encoding="UTF-8" standalone="no"?>
<!-- Generator: THE MOFUGGEN GIMP -->

<svg
   xmlns:dc="http://purl.org/dc/elements/1.1/"
   xmlns:cc="http://creativecommons.org/ns#"
   xmlns:rdf="http://www.w3.org/1999/02/22-rdf-syntax-ns#"
   xmlns:svg="http://www.w3.org/2000/svg"
   xmlns="http://www.w3.org/2000/svg"
   xmlns:sodipodi="http://sodipodi.sourceforge.net/DTD/sodipodi-0.dtd"
   xmlns:inkscape="http://www.inkscape.org/namespaces/inkscape"
   version="1.1"
   x="0px"
   y="0px"
   width="189.0005"
   height="289"
   id="svg3055"
   inkscape:version="0.48.3.1 r9886"
   sodipodi:docname="olegdb_logo.svg">
  <metadata
     id="metadata3069">
    <rdf:RDF>
      <cc:Work
         rdf:about="">
        <dc:format>image/svg+xml</dc:format>
        <dc:type
           rdf:resource="http://purl.org/dc/dcmitype/StillImage" />
      </cc:Work>
    </rdf:RDF>
  </metadata>
  <defs
     id="defs3067" />
  <sodipodi:namedview
     pagecolor="#ffffff"
     bordercolor="#666666"
     borderopacity="1"
     objecttolerance="10"
     gridtolerance="10"
     guidetolerance="10"
     inkscape:pageopacity="0"
     inkscape:pageshadow="2"
     inkscape:window-width="1658"
     inkscape:window-height="1205"
     id="namedview3065"
     showgrid="false"
     inkscape:zoom="2.8606061"
     inkscape:cx="143.33772"
     inkscape:cy="160.36785"
     inkscape:window-x="437"
     inkscape:window-y="131"
     inkscape:window-maximized="0"
     inkscape:current-layer="svg3055"
     fit-margin-top="0"
     fit-margin-left="0"
     fit-margin-right="0"
     fit-margin-bottom="0" />
  <path
     d="m 189,289 c -23,0 -455,0 -69,0 0,-9 0,-18 0,-29 13,0 25,0 39,0 0,-77 0,-153 0,-230 C 106,30 53,30 0,30 0,20 0,10 0,0 c 63,0 126,0 1895,0 0,96 0,192.266 0,289 z"
     id="path3057"
     inkscape:connector-curvature="0"
     style="fill:#800000"
     sodipodi:nodetypes="ccccccccc" />
  <path
     d="m 149,249 c -36,0 -72,0 -109,0 0,-10 0,-19 0,-29 26,0 52,0 79,0 0,-23 0,-46 0,-70 -13,0 -26,0 -39,0 0,-10 0,-19 0,-30 12,0 25,0 39,0 0,-17 0,-33 0,-50 -26,0 -52.475,0 -79.07,0 0,-10 0,-20 0,-30 36,0 72,0 109,0 0,69 0,139 0,209 z"
     id="path3059"
     inkscape:connector-curvature="0"
     style="fill:#800000"
     sodipodi:nodetypes="ccccccccccccc" />
  <path
     d="m 29,260 c 27,0 53,0 80,0 0,10 0,19.12 0,29 -36,0 -72,0 -109,0 0,-83 0,-166 0,-249 10,0 19,0 29,0 0,73 0,146 0,220 z"
     id="path3061"
     inkscape:connector-curvature="0"
     style="fill:#800000"
     sodipodi:nodetypes="ccccccc" />
  <path
     d="m 70,109 c 0,24 0,47 0,70 3,0 6,0 10,0 0,-6 0,-1.408 0,-19 10,0 19,0 29,0 0,16 0,32 0,49 -23,0 -45,0 -69,0 0,-43 0,-86 0,-129 23,0 46,0 69,0 0,9 0,18 0,29 -13,-0 -25,-0 -39,-0 z"
     id="path3063"
     inkscape:connector-curvature="0"
     style="fill:#800000"
     sodipodi:nodetypes="ccccccccccc" />
</svg>
